<mxfile host="65bd71144e">
    <diagram id="hJxjfjJCusAZ8AS4R_-t" name="ms">
        <mxGraphModel dx="863" dy="650" grid="0" gridSize="10" guides="1" tooltips="1" connect="1" arrows="1" fold="1" page="0" pageScale="1" pageWidth="1169" pageHeight="827" math="0" shadow="0">
            <root>
                <mxCell id="0"/>
                <mxCell id="1" parent="0"/>
                <mxCell id="kHjb7_GP1c-8JZNdNVrq-1" value="&lt;b&gt;&lt;font style=&quot;font-size: 16px&quot;&gt;rocky1.kryukov.local&lt;/font&gt;&lt;/b&gt;" style="rounded=0;whiteSpace=wrap;html=1;horizontal=1;verticalAlign=top;align=left;strokeColor=#FF0000;" parent="1" vertex="1">
                    <mxGeometry x="100" y="110" width="320" height="200" as="geometry"/>
                </mxCell>
                <mxCell id="kHjb7_GP1c-8JZNdNVrq-2" value="&lt;font style=&quot;font-size: 16px&quot;&gt;LDAP&lt;br&gt;&lt;font color=&quot;#ff0000&quot;&gt;master&lt;/font&gt;&lt;br&gt;&lt;/font&gt;" style="rounded=1;whiteSpace=wrap;html=1;align=center;arcSize=7;fillColor=none;strokeColor=#d6b656;" parent="1" vertex="1">
                    <mxGeometry x="190" y="160" width="170" height="100" as="geometry"/>
                </mxCell>
                <mxCell id="kHjb7_GP1c-8JZNdNVrq-3" value="&lt;b&gt;&lt;font style=&quot;font-size: 16px&quot;&gt;rocky2.kryukov.local&lt;/font&gt;&lt;/b&gt;" style="rounded=0;whiteSpace=wrap;html=1;horizontal=1;verticalAlign=top;align=left;strokeColor=#00CC00;" parent="1" vertex="1">
                    <mxGeometry x="510" y="110" width="320" height="200" as="geometry"/>
                </mxCell>
                <mxCell id="kHjb7_GP1c-8JZNdNVrq-5" style="edgeStyle=orthogonalEdgeStyle;rounded=0;orthogonalLoop=1;jettySize=auto;html=1;entryX=1;entryY=0.5;entryDx=0;entryDy=0;" parent="1" source="kHjb7_GP1c-8JZNdNVrq-4" target="kHjb7_GP1c-8JZNdNVrq-2" edge="1">
                    <mxGeometry relative="1" as="geometry"/>
                </mxCell>
                <mxCell id="kHjb7_GP1c-8JZNdNVrq-4" value="&lt;font style=&quot;font-size: 16px&quot;&gt;LDAP&lt;br&gt;&lt;font color=&quot;#00cc00&quot;&gt;slave&lt;/font&gt;&lt;br&gt;&lt;/font&gt;" style="rounded=1;whiteSpace=wrap;html=1;align=center;arcSize=7;fillColor=none;strokeColor=#d6b656;" parent="1" vertex="1">
                    <mxGeometry x="600" y="160" width="170" height="100" as="geometry"/>
                </mxCell>
            </root>
        </mxGraphModel>
    </diagram>
    <diagram id="vFyNKAJleZPe5AP0eM8O" name="mm">
        <mxGraphModel dx="863" dy="650" grid="0" gridSize="10" guides="1" tooltips="1" connect="1" arrows="1" fold="1" page="0" pageScale="1" pageWidth="827" pageHeight="1169" math="0" shadow="0">
            <root>
                <mxCell id="0"/>
                <mxCell id="1" parent="0"/>
                <mxCell id="ugTw_L9Z-6dV3J909xTC-1" value="&lt;b&gt;&lt;font style=&quot;font-size: 16px&quot;&gt;rocky1.kryukov.local&lt;/font&gt;&lt;/b&gt;" style="rounded=0;whiteSpace=wrap;html=1;horizontal=1;verticalAlign=top;align=left;strokeColor=#FF0000;" parent="1" vertex="1">
                    <mxGeometry x="100" y="110" width="320" height="220" as="geometry"/>
                </mxCell>
                <mxCell id="ugTw_L9Z-6dV3J909xTC-2" value="&lt;font style=&quot;font-size: 16px&quot;&gt;LDAP&lt;br&gt;&lt;font color=&quot;#ff0000&quot;&gt;master&lt;/font&gt;&lt;br&gt;olcServerID: 101&lt;br&gt;&lt;/font&gt;" style="rounded=1;whiteSpace=wrap;html=1;align=center;arcSize=7;fillColor=none;strokeColor=#d6b656;" parent="1" vertex="1">
                    <mxGeometry x="190" y="160" width="170" height="100" as="geometry"/>
                </mxCell>
                <mxCell id="ugTw_L9Z-6dV3J909xTC-3" value="&lt;b&gt;&lt;font style=&quot;font-size: 16px&quot;&gt;rocky2.kryukov.local&lt;/font&gt;&lt;/b&gt;" style="rounded=0;whiteSpace=wrap;html=1;horizontal=1;verticalAlign=top;align=left;strokeColor=#FF0000;" parent="1" vertex="1">
                    <mxGeometry x="510" y="110" width="320" height="220" as="geometry"/>
                </mxCell>
                <mxCell id="ugTw_L9Z-6dV3J909xTC-5" value="&lt;font style=&quot;font-size: 16px&quot;&gt;LDAP&lt;br&gt;&lt;font color=&quot;#ff0000&quot;&gt;master&lt;/font&gt;&lt;br&gt;olcServerID: 102&lt;br&gt;&lt;/font&gt;" style="rounded=1;whiteSpace=wrap;html=1;align=center;arcSize=7;fillColor=none;strokeColor=#d6b656;" parent="1" vertex="1">
                    <mxGeometry x="600" y="160" width="170" height="100" as="geometry"/>
                </mxCell>
                <mxCell id="ugTw_L9Z-6dV3J909xTC-7" value="" style="endArrow=classic;html=1;curved=1;elbow=vertical;exitX=0;exitY=0.5;exitDx=0;exitDy=0;entryX=1;entryY=0.5;entryDx=0;entryDy=0;" parent="1" source="ugTw_L9Z-6dV3J909xTC-11" target="ugTw_L9Z-6dV3J909xTC-2" edge="1">
                    <mxGeometry width="50" height="50" relative="1" as="geometry">
                        <mxPoint x="460" y="360" as="sourcePoint"/>
                        <mxPoint x="510" y="310" as="targetPoint"/>
                    </mxGeometry>
                </mxCell>
                <mxCell id="ugTw_L9Z-6dV3J909xTC-8" value="" style="endArrow=classic;html=1;curved=1;elbow=vertical;exitX=1;exitY=0.5;exitDx=0;exitDy=0;entryX=0;entryY=0.5;entryDx=0;entryDy=0;" parent="1" source="ugTw_L9Z-6dV3J909xTC-10" target="ugTw_L9Z-6dV3J909xTC-5" edge="1">
                    <mxGeometry width="50" height="50" relative="1" as="geometry">
                        <mxPoint x="590" y="410" as="sourcePoint"/>
                        <mxPoint x="350" y="410" as="targetPoint"/>
                    </mxGeometry>
                </mxCell>
                <mxCell id="ugTw_L9Z-6dV3J909xTC-10" value="&lt;div style=&quot;text-align: left;&quot;&gt;olcSyncRepl: rid=001&lt;/div&gt;&lt;div style=&quot;text-align: left;&quot;&gt;&amp;nbsp; provider=ldap://rocky2.kryukov.local:389/&lt;/div&gt;" style="text;html=1;align=center;verticalAlign=middle;whiteSpace=wrap;rounded=0;fontColor=default;labelBackgroundColor=none;" parent="1" vertex="1">
                    <mxGeometry x="150" y="280" width="230" height="40" as="geometry"/>
                </mxCell>
                <mxCell id="ugTw_L9Z-6dV3J909xTC-11" value="&lt;div style=&quot;text-align: left;&quot;&gt;olcSyncRepl: rid=001&lt;/div&gt;&lt;div style=&quot;text-align: left;&quot;&gt;&amp;nbsp; provider=ldap://rocky1.kryukov.local:389/&lt;/div&gt;" style="text;html=1;align=center;verticalAlign=middle;whiteSpace=wrap;rounded=0;fontColor=default;labelBackgroundColor=none;" parent="1" vertex="1">
                    <mxGeometry x="560" y="280" width="230" height="40" as="geometry"/>
                </mxCell>
            </root>
        </mxGraphModel>
    </diagram>
    <diagram id="ggnMvmFtciIYlDHK0zu1" name="mms">
        <mxGraphModel dx="863" dy="650" grid="0" gridSize="10" guides="1" tooltips="1" connect="1" arrows="1" fold="1" page="0" pageScale="1" pageWidth="827" pageHeight="1169" math="0" shadow="0">
            <root>
                <mxCell id="0"/>
                <mxCell id="1" parent="0"/>
                <mxCell id="KQtOepFiocRJAdrFyE5Z-1" value="&lt;b&gt;&lt;font style=&quot;font-size: 16px&quot;&gt;rocky1.kryukov.local&lt;/font&gt;&lt;/b&gt;" style="rounded=0;whiteSpace=wrap;html=1;horizontal=1;verticalAlign=top;align=left;strokeColor=#FF0000;" parent="1" vertex="1">
                    <mxGeometry x="100" y="110" width="320" height="220" as="geometry"/>
                </mxCell>
                <mxCell id="KQtOepFiocRJAdrFyE5Z-2" value="&lt;font style=&quot;font-size: 16px&quot;&gt;LDAP&lt;br&gt;&lt;font color=&quot;#ff0000&quot;&gt;master&lt;/font&gt;&lt;br&gt;olcServerID: 101&lt;br&gt;&lt;/font&gt;" style="rounded=1;whiteSpace=wrap;html=1;align=center;arcSize=7;fillColor=none;strokeColor=#d6b656;" parent="1" vertex="1">
                    <mxGeometry x="190" y="160" width="170" height="100" as="geometry"/>
                </mxCell>
                <mxCell id="KQtOepFiocRJAdrFyE5Z-3" value="&lt;b&gt;&lt;font style=&quot;font-size: 16px&quot;&gt;rocky2.kryukov.local&lt;/font&gt;&lt;/b&gt;" style="rounded=0;whiteSpace=wrap;html=1;horizontal=1;verticalAlign=top;align=left;strokeColor=#FF0000;" parent="1" vertex="1">
                    <mxGeometry x="510" y="110" width="320" height="220" as="geometry"/>
                </mxCell>
                <mxCell id="KQtOepFiocRJAdrFyE5Z-4" value="&lt;font style=&quot;font-size: 16px&quot;&gt;LDAP&lt;br&gt;&lt;font color=&quot;#ff0000&quot;&gt;master&lt;/font&gt;&lt;br&gt;olcServerID: 102&lt;br&gt;&lt;/font&gt;" style="rounded=1;whiteSpace=wrap;html=1;align=center;arcSize=7;fillColor=none;strokeColor=#d6b656;" parent="1" vertex="1">
                    <mxGeometry x="600" y="160" width="170" height="100" as="geometry"/>
                </mxCell>
                <mxCell id="KQtOepFiocRJAdrFyE5Z-5" value="" style="endArrow=classic;html=1;curved=1;elbow=vertical;exitX=0;exitY=0.5;exitDx=0;exitDy=0;entryX=1;entryY=0.5;entryDx=0;entryDy=0;" parent="1" source="KQtOepFiocRJAdrFyE5Z-8" target="KQtOepFiocRJAdrFyE5Z-2" edge="1">
                    <mxGeometry width="50" height="50" relative="1" as="geometry">
                        <mxPoint x="460" y="360" as="sourcePoint"/>
                        <mxPoint x="510" y="310" as="targetPoint"/>
                    </mxGeometry>
                </mxCell>
                <mxCell id="KQtOepFiocRJAdrFyE5Z-6" value="" style="endArrow=classic;html=1;curved=1;elbow=vertical;exitX=1;exitY=0.5;exitDx=0;exitDy=0;entryX=0;entryY=0.5;entryDx=0;entryDy=0;" parent="1" source="KQtOepFiocRJAdrFyE5Z-7" target="KQtOepFiocRJAdrFyE5Z-4" edge="1">
                    <mxGeometry width="50" height="50" relative="1" as="geometry">
                        <mxPoint x="590" y="410" as="sourcePoint"/>
                        <mxPoint x="350" y="410" as="targetPoint"/>
                    </mxGeometry>
                </mxCell>
                <mxCell id="KQtOepFiocRJAdrFyE5Z-7" value="&lt;div style=&quot;text-align: left;&quot;&gt;olcSyncRepl: rid=001&lt;/div&gt;&lt;div style=&quot;text-align: left;&quot;&gt;&amp;nbsp; provider=ldap://rocky2.kryukov.local:389/&lt;/div&gt;" style="text;html=1;align=center;verticalAlign=middle;whiteSpace=wrap;rounded=0;fontColor=default;labelBackgroundColor=none;" parent="1" vertex="1">
                    <mxGeometry x="150" y="280" width="230" height="40" as="geometry"/>
                </mxCell>
                <mxCell id="KQtOepFiocRJAdrFyE5Z-8" value="&lt;div style=&quot;text-align: left;&quot;&gt;olcSyncRepl: rid=001&lt;/div&gt;&lt;div style=&quot;text-align: left;&quot;&gt;&amp;nbsp; provider=ldap://rocky1.kryukov.local:389/&lt;/div&gt;" style="text;html=1;align=center;verticalAlign=middle;whiteSpace=wrap;rounded=0;fontColor=default;labelBackgroundColor=none;" parent="1" vertex="1">
                    <mxGeometry x="560" y="280" width="230" height="40" as="geometry"/>
                </mxCell>
                <mxCell id="KQtOepFiocRJAdrFyE5Z-9" value="&lt;b&gt;&lt;font style=&quot;font-size: 16px&quot;&gt;rocky1.kryukov.local&lt;/font&gt;&lt;/b&gt;" style="rounded=0;whiteSpace=wrap;html=1;horizontal=1;verticalAlign=top;align=left;strokeColor=#00CC00;" parent="1" vertex="1">
                    <mxGeometry x="100" y="350" width="320" height="270" as="geometry"/>
                </mxCell>
                <mxCell id="KQtOepFiocRJAdrFyE5Z-10" value="&lt;font style=&quot;font-size: 16px&quot;&gt;LDAP&lt;br&gt;&lt;font color=&quot;#00cc00&quot;&gt;slave&lt;/font&gt;&lt;br&gt;olcServerID: 101&lt;br&gt;&lt;/font&gt;" style="rounded=1;whiteSpace=wrap;html=1;align=center;arcSize=7;fillColor=none;strokeColor=#d6b656;" parent="1" vertex="1">
                    <mxGeometry x="190" y="400" width="170" height="100" as="geometry"/>
                </mxCell>
                <mxCell id="KQtOepFiocRJAdrFyE5Z-15" style="edgeStyle=orthogonalEdgeStyle;html=1;entryX=0;entryY=0.75;entryDx=0;entryDy=0;dashed=1;dashPattern=8 8;strokeColor=#00CC00;fontColor=#00CC00;elbow=vertical;" parent="1" source="KQtOepFiocRJAdrFyE5Z-11" target="KQtOepFiocRJAdrFyE5Z-4" edge="1">
                    <mxGeometry relative="1" as="geometry"/>
                </mxCell>
                <mxCell id="KQtOepFiocRJAdrFyE5Z-11" value="&lt;div style=&quot;text-align: left;&quot;&gt;olcSyncRepl: rid=002&lt;/div&gt;&lt;div style=&quot;text-align: left;&quot;&gt;&amp;nbsp; provider=ldap://rocky2.kryukov.local:389/&lt;/div&gt;" style="text;html=1;align=center;verticalAlign=middle;whiteSpace=wrap;rounded=0;fontColor=default;labelBackgroundColor=none;" parent="1" vertex="1">
                    <mxGeometry x="150" y="560" width="230" height="40" as="geometry"/>
                </mxCell>
                <mxCell id="KQtOepFiocRJAdrFyE5Z-14" style="edgeStyle=orthogonalEdgeStyle;html=1;entryX=1;entryY=0.75;entryDx=0;entryDy=0;fontColor=#00CC00;elbow=vertical;strokeColor=#00CC00;dashed=1;dashPattern=8 8;" parent="1" source="KQtOepFiocRJAdrFyE5Z-13" target="KQtOepFiocRJAdrFyE5Z-2" edge="1">
                    <mxGeometry relative="1" as="geometry">
                        <Array as="points">
                            <mxPoint x="450" y="540"/>
                            <mxPoint x="450" y="235"/>
                        </Array>
                    </mxGeometry>
                </mxCell>
                <mxCell id="KQtOepFiocRJAdrFyE5Z-13" value="&lt;div style=&quot;text-align: left;&quot;&gt;olcSyncRepl: rid=001&lt;/div&gt;&lt;div style=&quot;text-align: left;&quot;&gt;&amp;nbsp; provider=ldap://rocky1.kryukov.local:389/&lt;/div&gt;" style="text;html=1;align=center;verticalAlign=middle;whiteSpace=wrap;rounded=0;fontColor=default;labelBackgroundColor=none;" parent="1" vertex="1">
                    <mxGeometry x="150" y="520" width="230" height="40" as="geometry"/>
                </mxCell>
            </root>
        </mxGraphModel>
    </diagram>
</mxfile>